/* XPM */
static char *_508379371927[] = {
/* columns rows colors chars-per-pixel */
"128 128 47 1 ",
"  c #FE8E1E",
". c #FE8F21",
"X c #FE9125",
"o c #FF952C",
"O c #FF992A",
"+ c #FE9730",
"@ c #FF9A35",
"# c #FE9D3B",
"$ c #FFA137",
"% c #FFA238",
"& c #FD9F41",
"* c #FEA143",
"= c #FEA54C",
"- c #FCA752",
"; c #FEA954",
": c #FDAC5C",
"> c #FCAE61",
", c #FFB164",
"< c #FEB56C",
"1 c #FCB671",
"2 c #FEB974",
"3 c #FDBD7B",
"4 c #FCBF82",
"5 c #FDC185",
"6 c #FEC48B",
"7 c #FCC792",
"8 c #FEC994",
"9 c #FDCD9C",
"0 c #FCCEA1",
"q c #FED1A4",
"w c #FED5AC",
"e c #FDD7B2",
"r c #FED9B4",
"t c #FEDDBB",
"y c #FCDFC1",
"u c #FFE1C4",
"i c #FFE5CC",
"p c #FFE7D0",
"a c #FEEAD4",
"s c #FFEDDC",
"d c #FEEFE1",
"f c #FEF2E4",
"g c #FFF5EC",
"h c #FEF7F0",
"j c #FFF9F4",
"k c #FFFFFF",
"l c None",
/* pixels */
"llllllllllllllllllllllllllllllllllllllllllllllllllllllllllllllllllllllllllllllllllllllllllllllllllllllllllllllllllllllllllllllll",
"llllllllllllllllllllllllllllllllllllllllllllllllllllllllllllllllllllllllllllllllllllllllllllllllllllllllllllllllllllllllllllllll",
"llllllllllllllllllllllllllllllllllllllllllllllllllllllllllllllllllllllllllllllllllllllllllllllllllllllllllllllllllllllllllllllll",
"llllllllllllllllllllllllllllllllllllllllllllllllllllllllllllllllllllllllllllllllllllllllllllllllllllllllllllllllllllllllllllllll",
"llllllllllllllllllllllllllllllllllllllllllllllllllllllllllllllllllllllllllllllllllllllllllllllllllllllllllllllllllllllllllllllll",
"llllllllllllllllllllllllllllllllllllllllllllllllllllllllllllllllllllllllllllllllllllllllllllllllllllllllllllllllllllllllllllllll",
"llllllllllllllllllllllllllllllllllllllllllllllllllllllllllllllllllllllllllllllllllllllllllllllllllllllllllllllllllllllllllllllll",
"llllllllllllllllllllllllllllllllllllllllllllllllllllll&%###@##@%##@###@@#lllllllllllllllllllllllllllllllllllllllllllllllllllllll",
"llllllllllllllllllllllllllllllllllllllllllllllllll###%%%%%@@@%@@@@@%@#%%%%%##%llllllllllllllllllllllllllllllllllllllllllllllllll",
"llllllllllllllllllllllllllllllllllllllllllllll###%%@@@@@@@@@@@@@@@@@@@@@@@@#@%%##%llllllllllllllllllllllllllllllllllllllllllllll",
"lllllllllllllllllllllllllllllllllllllllllll*####@@@@@@@@@@@@@@@@@@@@@@@@@@@@@@@@%%#@#lllllllllllllllllllllllllllllllllllllllllll",
"lllllllllllllllllllllllllllllllllllllllll##%%@@@@@@@@@@#@@@@@@@@@@@@@@@@@@@@@@@@@@@%%##lllllllllllllllllllllllllllllllllllllllll",
"lllllllllllllllllllllllllllllllllllllll%#%@@@@@@@@@@@@@@@@@@@@@@@@@@@@@@@@@@@@@@@@@@@@%%#*llllllllllllllllllllllllllllllllllllll",
"lllllllllllllllllllllllllllllllllllll%#%@@@@@@@@@@@@@@@@@@@@@@@@@@@@@@@@@@@@#@@@@@@@@@@@@%@*llllllllllllllllllllllllllllllllllll",
"lllllllllllllllllllllllllllllllllll*#%@@@@@@@@@@@@@@@@@@@@@@@@@@@@@@@@@@@@@@@@@@@@@@@@@@@@%%#lllllllllllllllllllllllllllllllllll",
"llllllllllllllllllllllllllllllllll#%@@@@@@@@@@@@@@@@@@@@@@@@@@@@@@@@@@@@@@@@@@@@@@@@@@@@@@@@#%&lllllllllllllllllllllllllllllllll",
"llllllllllllllllllllllllllllllll&##@@@@@@@@@@@@@@@@@@@@@@@@@@@@@@@@@@@@@@@@@@@@@@@@@@@@@@@@@@@#@*lllllllllllllllllllllllllllllll",
"lllllllllllllllllllllllllllllll##@@@@@@@@@@@@@@@@@@@@@@#@@@@@@@@@@@@@@@@@@@@@@@@@@@@@@@@@@@@@@@&%%llllllllllllllllllllllllllllll",
"lllllllllllllllllllllllllllll*#@@@@@@@@@@@@@@@@@@@@@@@@@@@@@@@@@@@@@@@@@@@@@@@@@@@@@@@@@@@@@@@@@@%#lllllllllllllllllllllllllllll",
"llllllllllllllllllllllllllll%%@@@@@@@@@@@@@@@@@@@@@@@@@@@@@@@@@@@@@@@@@@@@@@@@@@@@@@@@@@@@@@@@@@@@@#*lllllllllllllllllllllllllll",
"lllllllllllllllllllllllllll%%@@@@@@@@@@@@@@@@@@@@@@@@@@@@@@@@@@@@@@@@@@@@@@@@@@@@@@@@@@@@@@@@@@@@@@@%%llllllllllllllllllllllllll",
"llllllllllllllllllllllllll#%@@@@@@@@@@@@@@@@@@@@@@@@@@@@@@@@@@@@@@@@@@@@@@@@@@@@@@@@@@@@@@@@@@@@@@@@@%&lllllllllllllllllllllllll",
"lllllllllllllllllllllllll#@@@@@@@@@@@@@@@@@@@@@@@@@@@@@@@@@@@@@@@@@@@@@@@@@@@@@@@@@@@@@@@@@@@@@@@@@@@@%#llllllllllllllllllllllll",
"llllllllllllllllllllllll#@@@@@@@@@@@@@@@@@@@@@@@@@@@@@@@@@@@@@@@@@@@@@@@@@@@@@@@@@@@@@@@@@@@@@@@@@@@@@@%#lllllllllllllllllllllll",
"lllllllllllllllllllllll#@@@@@@@@@@@@@@@@@@@@@@@@@@@@@@@@@@@@@@@@@@@@@@@@@#@@@@@@@@@@@@@@@@@@@@@@@@@@@@@@%#llllllllllllllllllllll",
"llllllllllllllllllllll@@@@@@@@@@@@@@@@@@@@@@@@@@@@@@@@@@@@@@@@@@@@@@@@@@@@@@@@@@@@@@@@@@@@@@@@@@@@@@@@@@@##lllllllllllllllllllll",
"lllllllllllllllllllll%@@@@@@@@@@@@@@@@@@@@@@@@@@@@@@@@@@@@@@@@@@@@@@@@@@@@@@@@@@@@@@@@@@@@@@@@@@@@@@@@@@@@%%llllllllllllllllllll",
"llllllllllllllllllll%@@@@@@@@@@@@@@@@@@@@@@@@@@@@@@@@@@@@@@@@@@@@@@@@@@@@@@@@@@@@@@@@@@@@@@@@@@@@@@@@@@@@@#%*lllllllllllllllllll",
"lllllllllllllllllll#%@@@@@@@@@@@@@@@@@@@@@@@@@@@@@@@@@@@@@@@@@@@@@@@@@@@@@@@@@@@@@@@@@@@@@@@@@@@@@@@@@@@@@@@#lllllllllllllllllll",
"llllllllllllllllll&%@@@@@@@@@@@@@@@@@@@@@@@@@@@@@@@@@@@@@@@@@@@@@@@@@@@@@@@@@@@@@@@@@@@@@@@@@@@@@@@@@@@@@@@@@#llllllllllllllllll",
"llllllllllllllllll%@@@@@@@@@@@@@@@@@@@@@@@@@@@@@@@@@@@@+o@o@@@@@@@@@@@@@@@@@@@@@@@@@@@@@@@@@@@@@@@@#@@@@@@@@@%#lllllllllllllllll",
"lllllllllllllllll#@@@@@@@@@@@@@@@@@@@@@@@@@@@@@@@@@@@@@&=*@ooooo@@@@@@@@@@@@@@@@@@@@@@@@@@@@@@@@@@@@@@@@@@@@@@%&llllllllllllllll",
"llllllllllllllll#@@@@@@@@@@@@@@@@@@@@@@@@@@@@@@@@@@@@@@6gsirq61:#@@@@@@@@@@@@@@@@@@@@@@@@@@@@@@@@@@@@@@@#+##+#+#llllllllllllllll",
"lllllllllllllll&&@@@@@@@@@@@@@@@@@@@@@@@@@@@oo++o@@@@@owkkkkkkkg=@@@oooooo@@@@@@@@@@@@@@@@@@@@@@@@@@@@@@+##+++#$#lllllllllllllll",
"lllllllllllllll#@@@@@@@@@@@@@@@@@@@@@@@@@@@@::&&@ooooootkkkkkkkf*@@@:62>=*@oo@@@@+@@@@@@@@@@@@@@@@@@@@@@#+#+#+#+%*llllllllllllll",
"llllllllllllll#%@@@@@@@@@@@@@@@@@@@@@@@@@@@0jjfauw84<;=akkkkkkki@@@o9kkjgsit9&@@@#@@@@@@@@@@@@@@@@@@@@@@+++#+#+#@#llllllllllllll",
"llllllllllllll#@@@@@@@@@@@@@@@@@@@@@@@@@@@&dkkkkkkkkkjgjkkkkkkktoooXwkkkkkkkh=@@@@+#@@@@@@@@@@@@@@@@@@@@#+##+#+#@%#lllllllllllll",
"lllllllllllll#@@@@@@@@@@@@@@@@@@@@@@@@@@@+:gkkkkkkkkkkkkkkkkkkkgue95skkkkkkks%@@@@@@@@@@@@@@@@@@@@@#@@@+oX.XXXX+o@@lllllllllllll",
"lllllllllllll@@@@@@@@@@@@@@@@@@@@@@@@@@@@+>kkkkkkkkkkkkkkkkkkkkkkkkkkkkkkkkktXo@@@@@@@@@@@@@@@@@@@#++oo#>40eee71=oO#llllllllllll",
"llllllllllll%%@@@@@@@@@@@@@@@@@@@@@@@@@@@+:kkkkkkkkkkkkkkkkkkkkkkkkkkkkkkkkkd5=oo@#+@@@@@@@@@@@@@@++o-9skkkkkkkkgu1+llllllllllll",
"llllllllllll#@@@@@@@@@@@@@@@@@@@@@@@@@@@@@@4yafjkkkkkkkkkkkkkkkkkkkkkkkkkkkkkkgq-o+@@@@@@@@@@@@@@@++7hkkkkkkkkkkkkkt:lllllllllll",
"lllllllllll##@@@@@@@@@@@@@@@@@@@@@@@@@@@@@@o@#=:<skkkkkkkkkkkkkkkkkkkkkkkkkkkkkkh7#o@@@@@@@@@@@@@+&ykkkkkkjffhkkkkkkflllllllllll",
"lllllllllll#@@@@@@@@@@@@@@@@@@@@@@@@@@@@@@@@@++o@skkkkkkkkkkkkkkkkkkkkkkkkkkkkkkkky=o@@@@@@@@@@@+@ykkkkf01-=&->0dkkkf;llllllllll",
"lllllllllll%@@@@@@@@@@@@@@@@@@@@@@@@@@@@@@@@@@@+=gkkkkkkkkkasgjkkkkkkkkkkkkkkkkkkkka=+@@@@@@@@@@+9kkkke=.Xo+++oX#9kk6+llllllllll",
"llllllllll#@@@@@@@@@@@@@@@@@@@@@@@@@@@@@@@@@@@@+>jkkkkkkkkj:#=:<49eusjkkkkkkkkkkkkkku#+@+#@@+##+-jkkkt+o####+###+X3s*@llllllllll",
"llllllllll@@@@@@@@@@@@@@@@@@@@@@@@@@@@@@@@@@@@@+<kkkkkkkkkh=ooooXooo#;4thkkkkkkkkkkkk7o@+#@@++..0kkkf#.XX.XoX.XXoX.-@%#lllllllll",
"llllllllll%@@@@@@@@@@@@@@@@@@@@@@@@@@@@@@@@@@@@o5kkkkkkkkkd*@@@@@@@@@oXo:ekkkkkkkkkkkg=+#+##+>11fkkka347777700000e0#@@#lllllllll",
"lllllllll%%@@@@@@@@@@@@@@@@@@@@@@@@@@@@@@@@@@@@+9kkkkkkkkki@@@@@@@@@@@@@oo3hkkkkkkkkkk8o+#++-jkkkkkkkkkkkkkkkkkkkkt+@@#lllllllll",
"lllllllll#@@@@@@@@@@@@@@@@@@@@@@@@@@@@@@@@@@@@@+rkkkkkkkkkto@@@@@@@@@@@@@@o2kkkkkkkkkki#+@@O0kkkkkkkkkkkkkkkkkkkkk-+@@$%llllllll",
"lllllllll@@@@@@@@@@@@@@@@@@@@@@@@@@@@@@@@@@@@@@@ikkkkkkkkkqo@@@@@@@@@@@@@@@otkkkkkkkkkg-+@+-kkkkkkkkkkkkkkkkhhhhge+#+#@#llllllll",
"llllllll*%@@@@@@@@@@@@@@@@@@@@@@@@@@@@@@@@@@@@@&skkkkkkkkk6@@@@@@@@@@@@@@@@o1kkkkkkkkkj>++#-433dkkkf1>>--------&-#+##+#+llllllll",
"llllllll#%@@@@@@@@@@@@@@@@@@@@@@@@@@@@@@@@@@@@+=fkkkkkkkkk<o@@@@@@@@@@@@@@@@;hkkkkkkkkk>+#++X..ykkkd............X+#++#+$llllllll",
"llllllll@@@@@@@@@@@@@@@@@@@@@@@@@@@@@@@@@@@@@@+:jkkkkkkkkj,o@@@@@@@@@@@@@@@o-hkkkkkkkkk<+@@@+->skkkh434447777700-+#@+####lllllll",
"llllllll#@@@@@@@@@@@@@@@@@@@@@@@@@@@@@@@@@@@@@+<kkkkkkkkkg-@@@@@@@@@@@@@@@@@;jkkkkkkkkk>+@@+*gkkkkkkkkkkkkkjkkkf#++#@@+##lllllll",
"llllllll#@@@@@@@@@@@@@@@@@@@@@@@@@@@@@@@@@@@@@+4kkkkkkkkkd%@@@@@@@@@@@@@@@@o<kkkkkkkkkj-+@@O7kkkkkkkkkkkkkkkkkk4+#++@+#@#lllllll",
"llllllll%@@@@@@@@@@@@@@@@@@@@@@@@@@@@@@@@@@@@@+9kkkkkkkkkp@@@@@@@@@@@@@@@@@o0kkkkkkkkkf*@@+*hkkkkkkkkkkkkkkjjjs&++#+@@@@#lllllll",
"lllllll#@@@@@@@@@@@@@@@@@@@@@@@@@@@@@@@@@@@@@@@rkkkkkkkkkt@@@@@@+@@@@@@@@@o*fkkkkkkkkky++#+-7441akkkk7>>>>>-->-++#++@@@@@lllllll",
"lllllll@@@@@@@@@@@@@@@@@@@@@@@@@@@@@@@@@@@@@@@@ykkkkkkkkkqo@@@@@@@@@@@@@@@@ekkkkkkkkkk7+++#+XXX.1kkkkyX.+XX+Xo++#++>@@@@@lllllll",
"lllllll#%@@@@@@@@@@@@@@@@@@@@@@@@@@@@@@@@@@@@@&skkkkkkkkk5Xoo@@@@@@@@@@oX#ekkkkkkkkkkh-+#+#+#+#+#ykkkky&.++###++X&ey+@@@%*llllll",
"lllllll#@@@@@@@@@@@@@@@@@@@@@@@@@@@@@@#@@@@@@@&fkkkkkkkkke<>-#@oooooooo*3skkkkkkkkkkke+#+#+#+##+X-hkkkkd4-++X++-7dky+@@@%#llllll",
"lllllll#@@@@@@@@@@@@@@@@@@@@@@@@@@@@@@@@@@@@@+:jkkkkkkkkkkkkgfit063238rfkkkkkkkkkkkkg-O##+#++#+#&X1hkkkkkhieetajkkky+@@@%&llllll",
"lllllll#@@@@@@@@@@@@@@@@@@@@@@@@@@@@@@@@@@@@@+,kkkkkkkkkkkkkkkkkkkkkkkkkkkkkkkkkkkkk4++++##+#+#++&X1dkkkkkkkkkkkkkke+@@@@#llllll",
"lllllll@@@@@@@@@@@@@@@@@@@@@@@@@@@@@@@@@@@@@@+4kkkkkkkkkkkkkkkkkkkkkkkkkkkkkkkkkkkk9O#+$+#+#+##+#+#.-0hkkkkkkkkkka4@@@@@%#llllll",
"lllllll#@@@@@@@@@@@@@@#@@@@@@@@@@@@@@@@@@@@@@+8kkkkkkkkkkkkkkkkkkkkkkkkkkkkkkkkkkk7+++#+#+#+#++#+#+&X.-4eadfday7>#o+@@@@%#llllll",
"lllllll@@@@@@@@@@@@@@@@@@@@@@@@@@@@@@@@@@@@@@@wkkkkkkkkkkkkkkkkkkkkkkkkkkkkkkkkkd2o@@@@@@@@@@@@@@@@@@@ooo@&&&#+Xo+@@@@@@##llllll",
"lllllll#@@@@@@@@@@@@@@@@@@@@@@@@@@@@@@@@@@@@@@ukkkkkkkkkkkkkkkkkkkkkkkkkkkkkkkki*X@@@@@@@@@@@@@@@@@@@@@@@@++++@@+@@@@@@#@&llllll",
"lllllll@@@@@@@@@@@@@@@@@@@@@@@@@@@@@@@@@@@@@@#akkkkkkkkksidhkkkkkkkkkkkkkkkkkkkhw*o@@@@@@@@@@@@@@@@@@@@@@@@@@@@@@@@@@@@@##llllll",
"lllllll#@@@@@@@@@@@@@@@@@@@@@@@@@@@@@@@@@@@@@*fkkkkkkkkk2o*-,26qtpfkkkkkkkkkkkkkkp=o@@@@@@@@@@@@@@@@@@@@@@@@@@@@@@@@@@@@@*llllll",
"lllllll@@#@@@@@@@@@@@@@@@@@@@@@@@@@@@@@@@@@@@-jkkkkkkkkk,oooooXoo@*,6uhkkkkkkkkkkks=o@@@@@@@@@@@@@@@@@@@@@@@@@@@@@@@@@@@@=llllll",
"lllllll#@@@@@@@@@@@@@@@@@@@@@@@@@@@@@@@@@@@@+,kkkkkkkkkh;@@@@@@@@@oooo;qjkkkkkkkkkku#@@@@@@@@@@@@@@@@@@@@@@@@@@@@@@@@@@@%lllllll",
"lllllll#@@@@@@@@@@@@@@@@@@@@@@@@@@@@@@@@@@@@@3kkkkkkkkkf*@@@@@@@@@@@@@oo<skkkkkkkkkk6o@@@@@@@@@@@@@@@@@@@@@@@@@@@@@@@@@@@lllllll",
"lllllll#@@@@@@@@@@@@@@@@@@@@@@@@@@@@@@@@@@@@o8kkkkkkkkka#@@@@@@@@@@@@@@@o;fkkkkkkkkkf*+@@@@@@@@@@@@@@@@@@@@@@@@@@@@@@@@@@lllllll",
"lllllll#@@@@@@@@@@@@@@@@@@@@@@@@@@@@@@@@@@@@owkkkkkkkkku@@@@@@@@@@@@@@@@@o<jkkkkkkkkk5o@@@@@@@@@@@@@@@@@@@@@@@@@@@@@@@@@@lllllll",
"lllllll&#@@@@@@@@@@@@@@@@@@@@@@@@@@@@@@@@@@@@ukkkkkkkkkw+@@@@@@@@@@@@@@@@@otkkkkkkkkku@@@@@@@@@@@@@@@@@@@@@@@@@@@@@@@@@@%lllllll",
"llllllll#@@@@@@@@@@@@@@@@@@@@@@@@@@@@@@@@@@@#akkkkkkkkk8+@@@@@@@@@@@@@@@@@o2kkkkkkkkkf*@@@@@@@@@@@@@@@@@@@@@@@@@@@@@@@@%*lllllll",
"llllllll@@@@@@@@@@@@@@@@@@@@@@@@@@@@@@@@@@@@*fkkkkkkkkk3o@@@@@@@@@@@@@@@@@@-jkkkkkkkkh;@@@@@@@@@@@@@@@@@@@@@@@@@@@@@@@@@*lllllll",
"llllllll@#@@@@@@@@@@@@@@@@@@@@#@@@@@@@@@@@@o;hkkkkkkkkj<+@@@@@@@@@@@@@@@@@@=gkkkkkkkkj>+@@@@@@@@@@@@@@@@@@@@@@@@@@@@@@@%llllllll",
"llllllll##@@@@@@&@@@@@@@@@@@@@@@@@@@@@@@@@@@,kkkkkkkkkj;+@@@@@@@@@@@@@@@@@o-hkkkkkkkkk>+@@@@@@@@@@@@@@@@@@@@@@@@@@@@@@@#llllllll",
"llllllll&#@@@@@@+@@@@@@@@@@@@@@@@@@@@@@@@@@o3kkkkkkkkkf=@@@@@@@@@@@@@@@@@@@,jkkkkkkkkj>+@@@@@@@@@@@@@@@@@@@@@@@@@@@@@@##llllllll",
"lllllllll@@@@@@@@@@@@@@@@@@@@@@@@@@@@@@@@@@o8kkkkkkkkka#+@@@@@@@@@@@@@@@@@o6kkkkkkkkkj:+@@@@@@@@@@@@@@@@@@@@@@@@@@@@@@@#llllllll",
"lllllllll#@@@@@@@@@@@@@@@@@@@@@@@@@@@@@@@@@owkkkkkkkkku@@@@@@@@@@@@@@@@@@@oikkkkkkkkkf*@@@@@@@@@@@@@@@@@@@@@@@@@@@@@@@%lllllllll",
"lllllllll#%@@@@@@@@@@@@@@@@@@@@@@@@@@@@@+@@@tkkkkkkkkkwo@@@@@@@@@@@@@@@@@o<jkkkkkkkkki@@@@@@@@@@@@@@@@@@@@@@@@@@@@@@@@#lllllllll",
"llllllllll@@@@@@@@@@@@@@@@@@@@@@@@@@@o#@ooXopkkkkkkkkk6o@@@@@@@@@@@@@@@+o=skkkkkkkkkkqo@@@@@@@@@@@@@@@@@@@@@@@@@@@@@@@#lllllllll",
"llllllllll#@@@@@@@@@@@@@@@@@@@@@@@@@+3pitq65fkkkkkkkkk8=#ooooooo@@+@+oo+<skkkkkkkkkkk<@@@@@@@@@@@@@@@@@@@@@@@@@@@@@@@%llllllllll",
"llllllllll#%@@@@@@@@@@@@@@@@@@@@@@@@&dkkkkkkkkkkkkkkkkjgsue96<:=#@o@#=2tjkkkkkkkkkkkd#@@@@@@@@@@@@@@@@@@@@@@@@@@@@@@@#llllllllll",
"lllllllllll@@@@@@@@@@@@@@@@@@@@@@@@+-hkkkkkkkkkkkkkkkkkkkkkkkkkgsiuupgkkkkkkkkkkkkkk8o@@@@@@@@@@@@@@@@@@@@@@@@@@@@@@%#llllllllll",
"lllllllllll#@@@@@@@@@@@@@@@@@@@@@@@+>kkkkkkkkkkkkkkkkkkkkkkkkkkkkkkkkkkkkkkkkkkkkkkd*@@@@@@@@@@@@@@@@@@@@@@@@@@@@@@@%lllllllllll",
"lllllllllll*%@@@@@@@@@@@@@@@@@@@@@@+<kkkkkkkkkkkkkkkkkkkkkkkkkkkkkkkkkkkkkkkkkkkkkj<o@@@@@@@@@@@@@@@@@@@@@@@@@@@@@@@#lllllllllll",
"llllllllllll#@@@@@@@@@@@@@@@@@@@@@@@%rgkkkkkkkkkkkkkkkkkkkkkkkkkkkkkkkkkkkkkkkkkkk6o@@@@@@@@@@@@@@@@@@@@@@@@@@@@@@@%&lllllllllll",
"llllllllllll*%@@@@@@@@@@@@@@@@@@@@@@@@-:160risgkkkkkkkkkkkkkkkkkkkkkkkkkkkkkkkkkj6o@@@@@@@@@@@@@@@@@@@@@@@@@@@@@@@@#llllllllllll",
"lllllllllllll@@@@@@@@@@@@@@@@@@@@@@@@@oooXoo@#=:<skkkkkkkkkkkkkkkkkkkkkkkkkkkkka<o@@@@@@@@@@@@@@@@@@@@@@@@@@@@@@@@%&llllllllllll",
"lllllllllllll&%@@@@@@@@@@@@@@@@@@@@@@@@@@@@@@@oo@akkkkkkks8rysgkkkkkkkkkkkkkjp5#o@@@@@@@@@@@@@@@@@@@@@@@@@@@@@@@@@#lllllllllllll",
"llllllllllllll#@@@@@@@@@@@@@@@@@@@@@@@@@@@@@@@@o=gkkkkkkkwXo+@0kkkkkkkjfpuw6>@oo@@@@@@@@@@@@@@@@@@@@@@@@@@@@@@@@@%&lllllllllllll",
"lllllllllllllll%@@@@@@@@@@@@@@@@@@@@@@@@@@@@@@@@:jkkkkkkk8o@@owkkkkkkkg-@@oXo@@@@@@@@@@@@@@@@@@@@@@@@@@@@@@@@@@@@#llllllllllllll",
"lllllllllllllll##@@@@@@@@@@@@@@@@@@@@@@@@@@@@@@o1kkkkkkkk3@@@+pkkkkkkks@@@@@@@@@@@@@@@@@@@@@@@@@@@@@@@@@@@@@@@@@@lllllllllllllll",
"llllllllllllllll#@@@@@@@@@@@@@@@@@@@@@@@@@@@@@@@,uafjkkkk<o@@@4wuafjkkp@@@@@@@@@@@@@@@@@@@@@@@@@@@@@@@@@@@@@@@@%*lllllllllllllll",
"lllllllllllllllll#@@@@@@@@@@@@@@@@@@@@@@@@@@@@@@++@&:>38q=+@@@+o+#&->41@@@@@@@@@@@@@@@@@@@@@@@@@@@@@@@@@@@@@@@@%llllllllllllllll",
"lllllllllllllllll#%@@@@@@@@@@@@@@@@@@@@@@@@@@@@@@@++oooo++@@@@@@++++oo+@@@@@@@@@@@@@@@@@@@@@@@@@@@@@@@@@@@@@@@#lllllllllllllllll",
"llllllllllllllllll#%@@@@@@@@@@@@@@@@@@@@@@@@@@@@@@@@@@@@@@@@@@@@@@@@@@@@@@@@@@@@@@@@@@@@@@@@@@@@@@@@@@@@@@@@@%*lllllllllllllllll",
"lllllllllllllllllll#@@@@@@@@@@@@@@@@@@@@@@@@@@@@@@@@@@@@@@@@@@@@@@@@@@@@@@@@@@@@@@@@@@@@@@@@@@@@@@@@@@@@@@@@%#llllllllllllllllll",
"llllllllllllllllllll#@@@@@#@@@@@@@@@@@@@@@@@@@@@@@@@@@@@@@@@@@@@@@@@@@@@@@@@@@@@@@@@@@@@@@@@@@@@@@@@@@@@@@@@#lllllllllllllllllll",
"llllllllllllllllllll%%@@@@@@@@@@@@@@@@@@@@@@@@@@@@@@@@@@@@@@@@@@@@@@@@@@@@@@@@@@@@@@@@@@@@@@@@@@@@@@@@@@@@@%llllllllllllllllllll",
"lllllllllllllllllllll#%#@@@@@@@@@@@@@@@@@@@@@@@@@@@@@@@@@@@@@@@@@@@@@@@@@@@@@@@@@@@@@@@@@@@@@@@@@@@@@@@@@%@lllllllllllllllllllll",
"llllllllllllllllllllll#%@@@@@@@@@@@@@@@@@@@@@@@@@@@@@@@@@@@@@@@@@@@@@@@@@@@@@@@@@@@@@@@@@@@@@@@@@@@@@@@@@#llllllllllllllllllllll",
"lllllllllllllllllllllll#@@@@@@@@@@@@@@@@@@@@@@@@@@@@@@@@@@@@@@@@@@@@@@@@@@@@@@@@@@@@@@@@@@@@@@@@@@@@@@@@%lllllllllllllllllllllll",
"llllllllllllllllllllllll#%@@@@@@@@@@#@@@@@@@@#@@@@@@@@@@@@@@@@@@@@@@@@@@@@@@@@@@@@@@@@@@@@@@@@@@@@@@@@%@llllllllllllllllllllllll",
"lllllllllllllllllllllllll*%@@@@@@@@@@@@@@@@@@@@@@@@@@@@@@@@@@@@@@@@@@@@@@@@@@@@@@@@@@@@@@@@@@@@#@@@@@@#lllllllllllllllllllllllll",
"llllllllllllllllllllllllll#%@@@@@@@@@@@@@@@@@@@@@@@@@@@@@@@@@@@@@@@@@@@@@@@@@@@@@@@@@@@@@@@@@@@@@@@@%#llllllllllllllllllllllllll",
"lllllllllllllllllllllllllll&%@@@@@@@@@@@@@@@@@@@@@@@@@@@@@@@@@@@@@@@@@@@@@@@@@@@@@@@@@@@@@@@@@@@@@@%#lllllllllllllllllllllllllll",
"lllllllllllllllllllllllllllll#%@@@@@@@@@@@@@@@@@@@@@@@@@@@@@@@@@@@@@@@@@@@@@@@@@@@@@@@@@@@@@@@@@@#%&llllllllllllllllllllllllllll",
"llllllllllllllllllllllllllllll#%@@@@@@@@@@@@@@@@@@@@@@@@@@@@@@@@@@@@@@@@@@@@@@@@@@@@@@@@@@@@@@@@##llllllllllllllllllllllllllllll",
"lllllllllllllllllllllllllllllll%%@@@@@@@@@@@@@@@@@@@@@@@@@@@@@@@@@@@@@@@@@@@@@@@@@@@@@@@@@@@@@@%#lllllllllllllllllllllllllllllll",
"lllllllllllllllllllllllllllllllll#%@@@@@@@@@@@@@@@@@@@@@@@@@@@@@@@@@@@@@@@@@@@@@@@@@@@@@@@@@#%@&llllllllllllllllllllllllllllllll",
"llllllllllllllllllllllllllllllllll*@%@@@@@@@@@@@@@@@@@@@@@@@#@@@@@@@@@@@@@@@@@@@@@@@@@@@@@@%%%llllllllllllllllllllllllllllllllll",
"llllllllllllllllllllllllllllllllllll%#%@@@@@@@@@@@@@@@@@@@@@@@@@@@@@@@@@@@@@@@@@@@@@@@@@@@%#llllllllllllllllllllllllllllllllllll",
"llllllllllllllllllllllllllllllllllllll%#%@@@@@@@@@@@@@@@@@@@@@@@@@@@@@@@@@@@@@@@@@@@@@@@%@*lllllllllllllllllllllllllllllllllllll",
"llllllllllllllllllllllllllllllllllllllll##%@@@@@@@@@@@@@@@@@@@@@@@@@@@@@@@@@@@@@@@@@@%%#*lllllllllllllllllllllllllllllllllllllll",
"llllllllllllllllllllllllllllllllllllllllll*#%%@@@@@@@@@@@@@@@@@@@@@@@@@@@@@@@@@@@@%%@#llllllllllllllllllllllllllllllllllllllllll",
"lllllllllllllllllllllllllllllllllllllllllllll%##%%#@@@@@@@@@@@@@@@@@@@@@@@@@@@##%##&llllllllllllllllllllllllllllllllllllllllllll",
"llllllllllllllllllllllllllllllllllllllllllllllll###%%%%@@@@@@@@@@@@@@@@@@@#%##@#%lllllllllllllllllllllllllllllllllllllllllllllll",
"lllllllllllllllllllllllllllllllllllllllllllllllllllll*##@%%%%%%%%%%%%%%%#####lllllllllllllllllllllllllllllllllllllllllllllllllll",
"llllllllllllllllllllllllllllllllllllllllllllllllllllllllllll=*###&#&%&llllllllllllllllllllllllllllllllllllllllllllllllllllllllll",
"llllllllllllllllllllllllllllllllllllllllllllllllllllllllllllllllllllllllllllllllllllllllllllllllllllllllllllllllllllllllllllllll",
"llllllllllllllllllllllllllllllllllllllllllllllllllllllllllllllllllllllllllllllllllllllllllllllllllllllllllllllllllllllllllllllll",
"llllllllllllllllllllllllllllllllllllllllllllllllllllllllllllllllllllllllllllllllllllllllllllllllllllllllllllllllllllllllllllllll",
"llllllllllllllllllllllllllllllllllllllllllllllllllllllllllllllllllllllllllllllllllllllllllllllllllllllllllllllllllllllllllllllll",
"llllllllllllllllllllllllllllllllllllllllllllllllllllllllllllllllllllllllllllllllllllllllllllllllllllllllllllllllllllllllllllllll",
"llllllllllllllllllllllllllllllllllllllllllllllllllllllllllllllllllllllllllllllllllllllllllllllllllllllllllllllllllllllllllllllll"
};
