/* XPM */
static char *_508379318217[] = {
/* columns rows colors chars-per-pixel */
"16 16 120 2 ",
"   c #FF870F",
".  c #FF8812",
"X  c #FF9124",
"o  c #FF9327",
"O  c #FF9428",
"+  c #FF9429",
"@  c #FF942A",
"#  c #FF952A",
"$  c #FF952B",
"%  c #FF952C",
"&  c #FF962C",
"*  c #FE962D",
"=  c #FF962D",
"-  c #FF972D",
";  c #FF972E",
":  c #FF972F",
">  c #FF9830",
",  c #FF9930",
"<  c #FF9831",
"1  c #FF9B33",
"2  c #FF9C32",
"3  c #FE9935",
"4  c #FF9935",
"5  c #FF9A34",
"6  c #FE9A35",
"7  c #FF9A35",
"8  c #FE9B35",
"9  c #FE9936",
"0  c #FE9A36",
"q  c #FF9A36",
"w  c #FE9B36",
"e  c #FE9A37",
"r  c #FF9B37",
"t  c #FE9C35",
"y  c #FE9D35",
"u  c #FE9C36",
"i  c #FE9D36",
"p  c #FE9C37",
"a  c #FE9D37",
"s  c #FE9E36",
"d  c #FF9E36",
"f  c #FE9E37",
"g  c #FF9E37",
"h  c #FE9F37",
"j  c #FF9D3B",
"k  c #FF9D3C",
"l  c #FF9F3F",
"z  c #FFA033",
"x  c #FFA036",
"c  c #FFA037",
"v  c #FFA137",
"b  c #FFA238",
"n  c #FFA338",
"m  c #FFA438",
"M  c #FFA439",
"N  c #FFA539",
"B  c #FFA639",
"V  c #FFA739",
"C  c #FFA73A",
"Z  c #FF9F40",
"A  c #FFA143",
"S  c #FFA244",
"D  c #FFA54B",
"F  c #FFA64D",
"G  c #FFAD4C",
"H  c #FFA750",
"J  c #FFA850",
"K  c #FFA851",
"L  c #FFAA55",
"P  c #FFAA56",
"I  c #FFAC5A",
"U  c #FFAD5D",
"Y  c #FFB054",
"T  c #FFAF60",
"R  c #FFB163",
"E  c #FFB460",
"W  c #FFBC6B",
"Q  c #FFB871",
"!  c #FFB974",
"~  c #FFBC79",
"^  c #FEBD7C",
"/  c #FEBF81",
"(  c #FFC181",
")  c #FFC183",
"_  c #FFC489",
"`  c #FFC58B",
"'  c #FFC891",
"]  c #FFCA95",
"[  c #FDCA96",
"{  c #FFCF9E",
"}  c #FFD0A1",
"|  c #FFD2A4",
" . c #FFD8A6",
".. c #FED3A8",
"X. c #FFD5AB",
"o. c #FFD7AF",
"O. c #FEDAB6",
"+. c #FFDAB6",
"@. c #FFDCB9",
"#. c #FFDEBD",
"$. c #FFE2C6",
"%. c #FFE5CB",
"&. c #FFE8D0",
"*. c #FFE9D3",
"=. c #FFEFE0",
"-. c #FEEFE1",
";. c #FFF0E1",
":. c #FFF0E2",
">. c #FFF1E2",
",. c #FFF4EA",
"<. c #FFF6ED",
"1. c #FFF6EE",
"2. c #FFF9F3",
"3. c #FFFAF6",
"4. c #FFFBF8",
"5. c #FFFCF8",
"6. c #FFFDFB",
"7. c #FFFEFE",
"8. c white",
"9. c None",
/* pixels */
"9.9.9.9.9.9.9.9.9.9.9.9.9.9.9.9.",
"9.9.9.9.9.9.y 6 6 y y 9.9.9.9.9.",
"9.9.9.9.j m v v n n n y 6 9.9.9.",
"9.9.9.y M < O % % @ 6 j C ; 9.9.",
"9.9.6 n : I ) @.' ! % < < G 9.9.",
"9.9.M 6 < F =.5.*.2.[ : )  .[ 9.",
"9.6 M 6 6 O *.} . ~ 6.^ >.o.E 9.",
"9.6 v 6 < j >.#.R } :.K | O.W 9.",
"9.6 v 6 ; D 1.%.$.6.{ X 6 R Y 9.",
"9.6 n 6 O L 5.K . ` ,.A % O v 9.",
"9.y M < b o.6.) K O.1.A < v 6 9.",
"9.9.6 6 A _ >.1.2.>.Q % 6 M 6 9.",
"9.9.e M 2 o L K U k O y n y 9.9.",
"9.9.9.6 M v % ; ; < y M y 9.9.9.",
"9.9.9.9.9.j y n M m y j 9.9.9.9.",
"9.9.9.9.9.9.9.9.9.9.9.9.9.9.9.9."
};
