/* XPM */
static char *_508379335654[] = {
/* columns rows colors chars-per-pixel */
"32 32 201 2 ",
"   c #FF9123",
".  c #FF9124",
"X  c #FF9225",
"o  c #FF9226",
"O  c #FF9326",
"+  c #FF9328",
"@  c #FF9428",
"#  c #FF9429",
"$  c #FF942A",
"%  c #FF952A",
"&  c #FF952B",
"*  c #FE952C",
"=  c #FF952C",
"-  c #FF962C",
";  c #FF962D",
":  c #FF962E",
">  c #FF972E",
",  c #FF972F",
"<  c #FF9A2C",
"1  c #FE982E",
"2  c #FF982F",
"3  c #FF9F2F",
"4  c #FE9731",
"5  c #FF9830",
"6  c #FF9831",
"7  c #FF9832",
"8  c #FF9932",
"9  c #FF9933",
"0  c #FF9934",
"q  c #FE9935",
"w  c #FF9A34",
"e  c #FE9A35",
"r  c #FF9A35",
"t  c #FE9B35",
"y  c #FF9B35",
"u  c #FE9936",
"i  c #FD9B36",
"p  c #FD9A37",
"a  c #FE9A36",
"s  c #FE9B36",
"d  c #FE9A37",
"f  c #FE9B37",
"g  c #FF9B37",
"h  c #FF9C35",
"j  c #FE9C36",
"k  c #FF9C36",
"l  c #FE9D36",
"z  c #FF9D36",
"x  c #FE9C37",
"c  c #FF9C37",
"v  c #FF9E36",
"b  c #FF9F36",
"n  c #FF9F37",
"m  c #FD9A38",
"M  c #FE9A38",
"N  c #FE9B38",
"B  c #FE9C38",
"V  c #FE9D38",
"C  c #FF9C3A",
"Z  c #FF9D3B",
"A  c #FE9E3E",
"S  c #FF9E3E",
"D  c #FF9F3F",
"F  c #FFA134",
"G  c #FFA037",
"H  c #FFA137",
"J  c #FFA237",
"K  c #FFA038",
"L  c #FFA138",
"P  c #FFA238",
"I  c #FFA338",
"U  c #FFA438",
"Y  c #FFA042",
"T  c #FFA143",
"R  c #FFA245",
"E  c #FEA246",
"W  c #FFA246",
"Q  c #FFA346",
"!  c #FEA449",
"~  c #FFA449",
"^  c #FFA54A",
"/  c #FEA44B",
"(  c #FEA54B",
")  c #FFA64E",
"_  c #FFA74F",
"`  c #FFAB48",
"'  c #FFA750",
"]  c #FFA850",
"[  c #FFA851",
"{  c #FFA952",
"}  c #FEA853",
"|  c #FFA953",
" . c #FFAC58",
".. c #FEAC5A",
"X. c #FFAC5B",
"o. c #FFAD5C",
"O. c #FCAD5F",
"+. c #FFAE5E",
"@. c #FFAF5F",
"#. c #FFB054",
"$. c #FFB060",
"%. c #FDB062",
"&. c #FEB062",
"*. c #FEB164",
"=. c #FEB265",
"-. c #FFB367",
";. c #FEB369",
":. c #FEB46A",
">. c #FFB56C",
",. c #FFB66D",
"<. c #FFB76E",
"1. c #FFBB71",
"2. c #FFB872",
"3. c #FFBA76",
"4. c #FFBA77",
"5. c #FFBC78",
"6. c #FEBC7A",
"7. c #FFBE7E",
"8. c #FFBF7F",
"9. c #FFC183",
"0. c #FFC489",
"q. c #FFC78E",
"w. c #FFC88D",
"e. c #FDC892",
"r. c #FFC892",
"t. c #FFC994",
"y. c #FFCA97",
"u. c #FFCB97",
"i. c #FDCD9B",
"p. c #FFCE9D",
"a. c #FFD0A1",
"s. c #FFD1A2",
"d. c #FFD1A4",
"f. c #FFD3A6",
"g. c #FFD4A9",
"h. c #FFD5AC",
"j. c #FFD6AD",
"k. c #FFD6AE",
"l. c #FFD7AF",
"z. c #FDD6B0",
"x. c #FFD9B3",
"c. c #FDD9B4",
"v. c #FFDBB7",
"b. c #FEDBB8",
"n. c #FFDCB9",
"m. c #FFDCBA",
"M. c #FEDDBC",
"N. c #FFDDBC",
"B. c #FEDEBF",
"V. c #FEDFBF",
"C. c #FFDFBF",
"Z. c #FEDFC0",
"A. c #FEE0C1",
"S. c #FFE0C1",
"D. c #FDE0C2",
"F. c #FEE1C4",
"G. c #FEE2C5",
"H. c #FEE2C7",
"J. c #FEE2C8",
"K. c #FEE3C8",
"L. c #FFE4CA",
"P. c #FFE5CA",
"I. c #FFE5CB",
"U. c #FFE5CC",
"Y. c #FFE8D0",
"T. c #FFEBD1",
"R. c #FFE9D5",
"E. c #FFEAD4",
"W. c #FFEAD5",
"Q. c #FEEAD6",
"!. c #FFEAD6",
"~. c #FFEBD6",
"^. c #FFEBD8",
"/. c #FFEDDA",
"(. c #FFEEDC",
"). c #FFEFDE",
"_. c #FFEFE0",
"`. c #FFF1E4",
"'. c #FFF2E4",
"]. c #FFF3E7",
"[. c #FFF3E8",
"{. c #FFF4E8",
"}. c #FFF4E9",
"|. c #FFF5EA",
" X c #FFF5EB",
".X c #FEF5EC",
"XX c #FFF5EC",
"oX c #FFF6EE",
"OX c #FFF7F0",
"+X c #FFF8F1",
"@X c #FFF8F2",
"#X c #FFF9F4",
"$X c #FFFAF4",
"%X c #FFFAF5",
"&X c #FFFAF6",
"*X c #FFFBF7",
"=X c #FFFDFA",
"-X c #FFFEFD",
";X c #FFFFFE",
":X c white",
">X c None",
/* pixels */
">X>X>X>X>X>X>X>X>X>X>X>X>X>X>X>X>X>X>X>X>X>X>X>X>X>X>X>X>X>X>X>X",
">X>X>X>X>X>X>X>X>X>X>X>X>X>X>X>X>X>X>X>X>X>X>X>X>X>X>X>X>X>X>X>X",
">X>X>X>X>X>X>X>X>X>X>X>Xs s s s s j s s >X>X>X>X>X>X>X>X>X>X>X>X",
">X>X>X>X>X>X>X>X>X>Xs I I I j j j j j I U j V >X>X>X>X>X>X>X>X>X",
">X>X>X>X>X>X>X>Xs I G 9 s s s 9 s s s s 9 j G j N >X>X>X>X>X>X>X",
">X>X>X>X>X>X>Xj j s s s 9 9 s s s s 9 s s s s s I j >X>X>X>X>X>X",
">X>X>X>X>X>Xj j 9 s s 9 s s 9 9 9 s 9 9 9 9 s s s I N >X>X>X>X>X",
">X>X>X>X>Xj j j s s 9 , , 4 9 & 9 , , 9 s s s 4 s s I s >X>X>X>X",
">X>X>X>Xs j s s 9 9 s _ W W m.N.W ! ] D 9 s s s s 4 , < >X>X>X>X",
">X>X>X>XG s 9 s s 9 ] oX|.(.:X:Xf.^.OX7.. 9 9 9 , s =.2.] >X>X>X",
">X>X>Xs s s s s s 9 D 9.E.:X:X:X:X:X:X[.q.s 9 , ~ Z.Z.M.T.>X>X>X",
">X>X>XG 0 s 0 s s s 9   k.:X[.,.2.e.E.:X:Xt., ! J.E.;.*.w.O.>X>X",
">X>Xs j s s s 4 s 9 s , L.:XE., . . V T.:X`.D i.:XD.b.A.t.< >X>X",
">X>Xs j 9 s s 9 s s 4 D /.:XZ., s s . g.:X|.W e.:XA.c.z.D h >X>X",
">X>Xs s s s s s 4 s 4 ~ [.:Xk.& & + ' _.:XE.s %.H.|.6.%...` 4 >X",
">X>Xs s s 9 9 s s s ,  .*X:X*XE.N.m.oX:X*X3., @ ! H.K.M.D.{ , >X",
">X>Xs 9 s 4 9 s s s , =.:X:X|.*X:X:X:X:Xt.& s s , s O.:.W G s >X",
">X>Xs s s s s s 9 s , 9.:X:X:.W o.7./.:X(.' 4 s s 4 , + 9 I s >X",
">X>Xs s s 0 s 9 s s , t.:X+X] & , . ' |.:Xk., 9 s 0 s 0 s I >X>X",
">X>Xs j 0 s s 9 s 4 & k.:X'.W , 9 9 9 E.:XL., s s s 0 s s I >X>X",
">X>Xs I 9 s s s 4 D Y J.:XE.9 & + . o.+X:Xm., s s 0 s 0 s s >X>X",
">X>X>Xs s s 9 s , a.OX:X:X*XL.v.p.g.|.:X:X3., 9 0 s 0 s j s >X>X",
">X>X>Xs G 9 s s 9 ,.g.m.[.:X:X:X:X:X:X=Xs.9 s s s 0 s s j >X>X>X",
">X>X>X>Xs s 9 9 s , & . s.:Xc.5.:X*X0...2 9 9 s 0 s s I s >X>X>X",
">X>X>X>XN I s s s s 9 9 _ ,._ 9 %.O., + 9 9 9 s s 0 G j >X>X>X>X",
">X>X>X>X>Xs G s 9 s s 9 , + , 4 & + s 0 s s s s s j j >X>X>X>X>X",
">X>X>X>X>X>Xj U j s s s s s s s s s 0 s s s j s j j >X>X>X>X>X>X",
">X>X>X>X>X>X>Xs G j 9 s s 9 9 s s 9 s s s 4 j U j >X>X>X>X>X>X>X",
">X>X>X>X>X>X>X>X>Xj I G s s s s s j s 9 j U j V >X>X>X>X>X>X>X>X",
">X>X>X>X>X>X>X>X>X>X>Xs s I G I G G U G j N >X>X>X>X>X>X>X>X>X>X",
">X>X>X>X>X>X>X>X>X>X>X>X>X>Xs N N j >X>X>X>X>X>X>X>X>X>X>X>X>X>X",
">X>X>X>X>X>X>X>X>X>X>X>X>X>X>X>X>X>X>X>X>X>X>X>X>X>X>X>X>X>X>X>X"
};
