/* XPM */
static char *_508379348505[] = {
/* columns rows colors chars-per-pixel */
"64 64 46 1 ",
"  c #FE8E1E",
". c #FE8F20",
"X c #FF9225",
"o c #FF952C",
"O c #FF9B2E",
"+ c #FF9730",
"@ c #FF9A35",
"# c #FE9C3A",
"$ c #FFA137",
"% c #FFA238",
"& c #FE9F40",
"* c #FEA245",
"= c #FFA54C",
"- c #FDA752",
"; c #FEA954",
": c #FEAD5B",
"> c #FDAF62",
", c #FEB163",
"< c #FFB56C",
"1 c #FDB771",
"2 c #FFBA76",
"3 c #FEBD7C",
"4 c #FFC184",
"5 c #FFC68D",
"6 c #FCC690",
"7 c #FFC893",
"8 c #FECC9B",
"9 c #FECFA1",
"0 c #FED1A4",
"q c #FED5AB",
"w c #FCD7B1",
"e c #FED9B3",
"r c #FEDDBB",
"t c #FFDFC1",
"y c #FFE2C5",
"u c #FFE5CC",
"i c #FDE7D1",
"p c #FFEAD5",
"a c #FFEDDB",
"s c #FFEFE0",
"d c #FFF1E4",
"f c #FFF5EB",
"g c #FFF7F0",
"h c #FFF9F4",
"j c #FFFFFF",
"k c None",
/* pixels */
"kkkkkkkkkkkkkkkkkkkkkkkkkkkkkkkkkkkkkkkkkkkkkkkkkkkkkkkkkkkkkkkk",
"kkkkkkkkkkkkkkkkkkkkkkkkkkkkkkkkkkkkkkkkkkkkkkkkkkkkkkkkkkkkkkkk",
"kkkkkkkkkkkkkkkkkkkkkkkkkkkkkkkkkkkkkkkkkkkkkkkkkkkkkkkkkkkkkkkk",
"kkkkkkkkkkkkkkkkkkkkkkkkkkkkkkkkkkkkkkkkkkkkkkkkkkkkkkkkkkkkkkkk",
"kkkkkkkkkkkkkkkkkkkkkkkk##@@%%%%%%%@#@##kkkkkkkkkkkkkkkkkkkkkkkk",
"kkkkkkkkkkkkkkkkkkkkkk##%%$@@@@@@@@@@%%%%@#kkkkkkkkkkkkkkkkkkkkk",
"kkkkkkkkkkkkkkkkkkk%@%%@@@@@@@@@@@@@@@@@@$%@#kkkkkkkkkkkkkkkkkkk",
"kkkkkkkkkkkkkkkkkk#%@@@@@@@@@@@@@@@@@@@@@@@@$%#kkkkkkkkkkkkkkkkk",
"kkkkkkkkkkkkkkkk#%@@@@@@@@@@@@@@@@@@@@@@@@@@@@#@#kkkkkkkkkkkkkkk",
"kkkkkkkkkkkkkkk@#@@@@@@@@@@@@@@@@@@@@@@@@@@@@@@#%#kkkkkkkkkkkkkk",
"kkkkkkkkkkkkk##$@@@@@@@@@@@@@@@@@@@@@@@@@@@@@@@@@%#kkkkkkkkkkkkk",
"kkkkkkkkkkkk#%@@@@@@@@@@@@@@@@@@@@@@@@@@@@@@@@@@@@%@kkkkkkkkkkkk",
"kkkkkkkkkkk#%@@@@@+@@@@@@@@@@@@@@@@@@@@@@@@@@@@@@@@%$kkkkkkkkkkk",
"kkkkkkkkkk#%@@@@@@@@@@@@@@@@@@@@@@@@@@@@@@@@@@@@@@@@@#kkkkkkkkkk",
"kkkkkkkkkk%@@@@@@@@@@@@@@@@@+@@@@@@@@@@@@@@@@@@@@@@@@$#kkkkkkkkk",
"kkkkkkkkk#@@@@@@@@@@@@@@@@@@#ooo@@@@@@@@@+@@@@@@@@@@@@%#kkkkkkkk",
"kkkkkkkk@##@@@@@@@@@@@ooooo-pye7*+ooXoO@+#+#@@@@@@@@@@@#kkkkkkkk",
"kkkkkkk##@@@@@@@@@@@+&43<;%1jjjj=X384<-@#+#+@@@@@@@@@#@#@kkkkkkk",
"kkkkkkk#@@@@@@@@@@@@+3jjjhddjjjf2;ujjj0o+#+#@@@@@@@oXXXoO+kkkkkk",
"kkkkkk#$@@@@@@@@@@@@+7jjjjjjjjjjjhjjjjq@o+#@@@@@@+o>8rtw3*kkkkkk",
"kkkkkk@@@@@@@@@@@@@@+-8epjjjjjjjjjjjjjhi3++@@@@@o&wjjjjjjd0kkkkk",
"kkkkkk%@@@@@@@@+@@@@@+o.2jjjjjhjjjjjjjjjjw#O@@@+&pja3:;1rjwkkkkk",
"kkkkk#@@@@@@@@@@@@@@@@@o7jjjjy-,35qpjjjjjjq+@@+.7ji#  ..X3;kkkkk",
"kkkkk#@@@@@@@@@@@@@@@@@+qjjjj0Xoooo#1ajjjjj>++:8fji9wwwrr1O#kkkk",
"kkkkk$@@@@@@@@@@@@@@@@@+tjjjj5o@+@@+o*djjjj9+#ijjjjjjjjjj>O@kkkk",
"kkkk#%@@@@@@@@@@@@@@@@@#pjjjj2+@@@@@+o8jjjjyo#>6jh1------@@#kkkk",
"kkkk@@@@@@@@@@@@@@@@@@@*djjjj>+@@@@@@+4jjjji++*wjj0890q0&+@$kkkk",
"kkkk#@@@@@@@@@@@@@@@@@+;gjjjg;+@@@@@@o8jjjjt++yjjjjjjjji#@@##kkk",
"kkkk@@@@@@@@@@@@@@@@@@+>jjjjd#O@@+@@o*djjjj6o#11ujd>:>>*o@@$#kkk",
"kkkk%@@@@@@@@@@@@@@@@@+2jjjja=#+oooO:yjjjjh-+@o.>hj0&..+>w=@@kkk",
"kkkk@@@@@@@@@@@@@@@@@++6jjjjjfaye90yhjjjjj0+#+@@o4jjhiyajh*@@kkk",
"kkkk%@@@@@@@@@@@@@@@@@+qjjjjjjjjjjjjjjjjjt#++#@#@o>rfjjfr<@#@kkk",
"kkkk#@@@@@@@@@@@@@@@@@Orjjjjjjjjjjjjjjjj8@+@@@@@@@oo&:;&+o@@#kkk",
"kkkk#@@@@@@@@@@@@@@@@@@pjjjjrqypdjjjjjjh8@+@@@@@@@@@+oo+@@@@@kkk",
"kkkk@@@@@@@@@@@@@@@@@@*djjjj:Xo#*:4yjjjjjr@@@@@@@@@@@@@@@@@@#kkk",
"kkkk#@@@@@@@+@@@@@@@@+;fjjjh;+@@+ooo3hjjjj4o@@@@@@@@@@@@@@@@@kkk",
"kkkk#@@@@@@@@@@@@@@@@+,jjjjd*+@@@@@+o5jjjja#@@@@@@@@@@@@@@@$#kkk",
"kkkk@@@@@@@@@@@@@@@@@+2jjjja#@@@@@@@+*fjjjh:o@@@@@@@@@@@@@@$kkkk",
"kkkk@#@@@@@@@@@@@@@@@+5jjjjy+@@@@@@@@#ajjjj,+@@@@@@@@@@@@@@#kkkk",
"kkkk#@@@@@@@@@@@@@@@@o0jjjjqO@@@@@@@+*fjjjj>+@@@@@@@@@@@@@@@kkkk",
"kkkkk%@@@@@@@@@@@@@ooXrjjjj7o++@@@@+o2jjjjh;+@@@@@@@@@@@@@@#kkkk",
"kkkkk@@@@@@@@@@@@@#<>;pjjjj4oooooooo;djjjja#@@@@@@@@@@@@@@$kkkkk",
"kkkkk#$@@@@@@@@@@+2jjhjjjjjdir052<20fjjjjj8o@@@@@@@@@@@@@@@kkkkk",
"kkkkkk@@@@@@@@@@@o8jjjjjjjjjjjjjjjjjjjjjjf=@@@@@@@@@@@@@@@#kkkkk",
"kkkkkk#$@@@@@@@@@+:ruagjjjjjjjjjjjjjjjjjg<o@@@@@@@@@@@@@@%kkkkkk",
"kkkkkkk@@@@@@@@@@@oo+&=:7jjjhsfjjjjjjjjy:o@@@@@@@@@@@@@@$@kkkkkk",
"kkkkkkk#$@@@@@@@@@@@@+oX3jjjs=&ujjja84,@o@@@@@@@@@@@@@@@@kkkkkkk",
"kkkkkkkk#@@@@@@@@@@@@@@+6gjja+oqfhj0Xoo+@@@@@@@@@@@@@@@%#kkkkkkk",
"kkkkkkkkk%@@@@@@@@@@@@@@&;>21+@&=;1-@@@@@@@@@@@@@@@@@@#@kkkkkkkk",
"kkkkkkkkk#$@@@@@@@@@@@@@+oooo@@+ooo+@@@@@@@@@@@@@@@@@@$kkkkkkkkk",
"kkkkkkkkkk#%@@@@@@@@@@@@@@@@@@@@@@@@@@@@@@@@@@@@@@@@@%#kkkkkkkkk",
"kkkkkkkkkkk@@@@@@@@@@@@@@@@@@@@@@@@@@@@@@@@@@@@@@@@@%#kkkkkkkkkk",
"kkkkkkkkkkkk@$@@@@@@@@@@@@@@@@@@@@@@@@@@@@@@@@@@@@@%#kkkkkkkkkkk",
"kkkkkkkkkkkkk#$@@@@@@@@@@@@@@@@@@@@@@@@@@@@@@@@@@@%#kkkkkkkkkkkk",
"kkkkkkkkkkkkkk#$@@@@@@@@@@@@@@@@@@@@@@@@@@@@@@@@##kkkkkkkkkkkkkk",
"kkkkkkkkkkkkkkk#%$@@@@@@@@@@@@@+@@@@@@@@@@@@@@@%@kkkkkkkkkkkkkkk",
"kkkkkkkkkkkkkkkkk#%@@@@@@@@@@@@@@@@@@@@@@@@@@%@%kkkkkkkkkkkkkkkk",
"kkkkkkkkkkkkkkkkkk%#%%@@@@@@@@@@@@@@@@@@@@@%%@kkkkkkkkkkkkkkkkkk",
"kkkkkkkkkkkkkkkkkkkk#@%%$@@@@@@@@@@@@@@@$%@#kkkkkkkkkkkkkkkkkkkk",
"kkkkkkkkkkkkkkkkkkkkkkk##@%%%$$#@##$%%%@##kkkkkkkkkkkkkkkkkkkkkk",
"kkkkkkkkkkkkkkkkkkkkkkkkkkk#@#@@#@#@##kkkkkkkkkkkkkkkkkkkkkkkkkk",
"kkkkkkkkkkkkkkkkkkkkkkkkkkkkkkkkkkkkkkkkkkkkkkkkkkkkkkkkkkkkkkkk",
"kkkkkkkkkkkkkkkkkkkkkkkkkkkkkkkkkkkkkkkkkkkkkkkkkkkkkkkkkkkkkkkk",
"kkkkkkkkkkkkkkkkkkkkkkkkkkkkkkkkkkkkkkkkkkkkkkkkkkkkkkkkkkkkkkkk"
};
