/* XPM */
static char *_508379353912[] = {
/* columns rows colors chars-per-pixel */
"80 80 47 1 ",
"  c #FF8F1E",
". c #FF9225",
"X c #FF962D",
"o c #FF982F",
"O c #FF9730",
"+ c #FF9A35",
"@ c #FE9D3A",
"# c #FFA137",
"$ c #FFA238",
"% c #FE9F41",
"& c #FFA143",
"* c #FEA54C",
"= c #FEA751",
"- c #FFA954",
"; c #FEAD5C",
": c #FFB25E",
"> c #FDAF61",
", c #FEB164",
"< c #FEB56C",
"1 c #FEB771",
"2 c #FEB974",
"3 c #FEBD7B",
"4 c #FDBE81",
"5 c #FEC285",
"6 c #FEC58B",
"7 c #FCC792",
"8 c #FFCA94",
"9 c #FECD9C",
"0 c #FCCEA0",
"q c #FFD1A4",
"w c #FED5AC",
"e c #FDD7B1",
"r c #FED9B4",
"t c #FFDCBA",
"y c #FFE0BF",
"u c #FEE1C3",
"i c #FEE5CD",
"p c #FEE7D1",
"a c #FFE9D4",
"s c #FEEDDC",
"d c #FFEFE0",
"f c #FFF1E4",
"g c #FFF5EC",
"h c #FEF7F0",
"j c #FFFAF5",
"k c #FFFFFF",
"l c None",
/* pixels */
"llllllllllllllllllllllllllllllllllllllllllllllllllllllllllllllllllllllllllllllll",
"llllllllllllllllllllllllllllllllllllllllllllllllllllllllllllllllllllllllllllllll",
"llllllllllllllllllllllllllllllllllllllllllllllllllllllllllllllllllllllllllllllll",
"llllllllllllllllllllllllllllllllllllllllllllllllllllllllllllllllllllllllllllllll",
"llllllllllllllllllllllllllllllllllll@@@@@@@lllllllllllllllllllllllllllllllllllll",
"lllllllllllllllllllllllllllllll$@+$$$$$$$$$$$@@+@lllllllllllllllllllllllllllllll",
"llllllllllllllllllllllllllll@+$$+#++++@++++++++@$$+@@lllllllllllllllllllllllllll",
"lllllllllllllllllllllllll@@$#++++++++++++++++++++++$$@@lllllllllllllllllllllllll",
"lllllllllllllllllllllll$+$@+++++++++++++++++++++++++++#$@lllllllllllllllllllllll",
"llllllllllllllllllllll@$++++++++++++++++++++++++++++++++##@lllllllllllllllllllll",
"llllllllllllllllllll$$++++++++++++++++++++++++++++++++++++#@@lllllllllllllllllll",
"lllllllllllllllllll@$+++++++++++++++++++++++++++++++++++++++$$llllllllllllllllll",
"lllllllllllllllll@$++++++++++++++++++++++++++++++++++++++++++$@lllllllllllllllll",
"llllllllllllllll@#+++++++++++++++++++++++++++++++++++++++++++++@llllllllllllllll",
"lllllllllllllll@@++++++++++++++++++++++++++++++++++++++++++++++#@lllllllllllllll",
"llllllllllllll@$+++++@++++++++++++++++++++++++++++++++++++++++++#+llllllllllllll",
"lllllllllllll@$+++++++++++++++++++++++++++++++++++++++++++++++++++@lllllllllllll",
"llllllllllll@$+++++++++++++++++++++++++++++++++++++++++++++++++++++@llllllllllll",
"llllllllllll$++++++++++++++++++++++X+++++++++++++++++++++++++++++++@@lllllllllll",
"lllllllllll+++++++++++++++++++++++@@+X.X++++++++++++++++++++++++++++$@llllllllll",
"llllllllll@@+++++++++++++++OXOO++X;sitq6%+OXXXo++++++++++++++++++++++#llllllllll",
"lllllllll@$+++++++++++++++O&-&@OX.1kkkkj-O@<,*@+++++++++++++++++++++++@lllllllll",
"lllllllll@++++++++++++++++@ijgauw8tkkkkf+.=kkgfp-O++++++++++++++++++++$@llllllll",
"llllllll@$++++++++++++++++-jkkkkkkkkkkkhr8qkkkkk-O+++++++++++++OX.+@@XXXllllllll",
"llllllll+++++++++++++++++O;kkkkkkkkkkkkkkkkkkkkh<+X+++++++++++.%4rassp0>Xlllllll",
"lllllll@$+++++++++++++++++@4rudkkkkkkkkkkkkkkkkkku<OO++++++++X1dkkkkkkkjwlllllll",
"lllllll@+++++++++++++++++++XXX>kkkkkkkkkkkkkkkkkkkkw@O++++++X4kkjr634efkk6llllll",
"lllllll$+++++++++++++++++++++O2kkkkkjqwuafjkkkkkkkkkt@+++++O=jkd>.....%ei@llllll",
"llllll@++++++++++++++++++++++O7kkkkkg&.X+&-<qfkkkkkkk7O+++X.ekj< OOO@@+&=+llllll",
"llllll+++++++++++++++++++++++Oqkkkkks@+++XXXX&qkkkkkkg*O+O9ujkkippasassrO@@lllll",
"llllll$++++++++++++++++++++++Oykkkkki++++++++XXqkkkkkk4OO,kkkkkkkkkkkkk6o+@lllll",
"lllll@@+++++++++++++++++++++++akkkkkeX++++++++X*gkkkkk0OO20ukki46543323@+++lllll",
"lllll@+++++++++++++++++++++++&fkkkkk9o++++++++++pkkkkkrX+X.5kkw+%%%%**OO@O@lllll",
"lllll@+++++++++++++++++++++++=gkkkkk4X+++++++++@akkkkkwX++rgkkjfggjjjf=OO@@@llll",
"lllll+++++++++++++++++++++++X,kkkkkk<X++++++++O&gkkkkk8OO<kkkkkkkkkkk0OO++#@llll",
"lllll@++++++++++++++++++++++o1kkkkkj;O++++++++X8kkkkkk1X+;31ikke>>>>>%OO++++llll",
"lllll@++++++++++++++++++++++o6kkkkkf&.XXXXXoXX3jkkkkkf&++O..>kkf;    .X42O@+llll",
"llll%@++++++++++++++++++++++oqkkkkkjr83,;*&=1rkkkkkkk9X+++++O0kkje1>>4uk7O++llll",
"llll@++++++++++++++++++++++++tkkkkkkkkkkjgfhkkkkkkkki@++++++O@0jkkkkkkkk1O@@llll",
"llll@@+++++++++++++++++++++++pkkkkkkkkkkkkkkkkkkkkka*o+++++O@OX>eshjgaq;O+++llll",
"llll@+++++++O+++++++++++++++%fkkkkkkkkkkkkkkkkkkkjw%X++++++++++..%*=*+.O++++llll",
"llll@#+++++++++++++++++++++O*gkkkkkfsgkkkkkkkkkkkj3.O++++++@+++@+OOXOO+++++@llll",
"llll@$+++++++++++++++++++++O,jkkkkk<@*;15qigkkkkkkk9O++++++++++++++++++++++@llll",
"llll@$+++++++++++++++++++++O1kkkkkj;XXX..X+*6gkkkkkk6O++++++++++++++++++++++llll",
"lllll$+++++++++++++++++++++O6kkkkkg*+++++++XX=skkkkkh=O+++++++++++++++++++#+llll",
"lllll++++++++++++++++++++++Xqkkkkks%+++++++++X;hkkkkk9X+++++++++++++++++++++llll",
"lllll++++++++++++++++++++++Xtkkkkki+++++++++++Xrkkkkki++++++++++++++++++++$$llll",
"lllll@++++++++++++++++++++++ikkkkktX++++++++++X6kkkkkd%O+++++++++++++++++@$lllll",
"lllll@++++++++++++++++++++O%skkkkk9+++++++++++X8kkkkkf&++++++++++++++++++++lllll",
"lllll@#+++++++++++++++++++O*gkkkkk5X++++++++++Xwkkkkkf&++++++++++++++++++@+lllll",
"llllll@+++++++++++++++++O+O;jkkkkk1o++++++++++@fkkkkkp+++++++++++++++++++@@lllll",
"llllll++++++++++++++++++%+.<kkkkkj=.XXo+X+++XX9kkkkkkeO++++++++++++++++++$llllll",
"llllll@$++++++++++++++O8sptikkkkkj93,=&+XXX+-wkkkkkkk2X+++++++++++++++++++llllll",
"lllllll++++++++++++++++skkkkkkkkkkkkkhfauwrijkkkkkkkd@++++++++++++++++++#@llllll",
"lllllll@+++++++++++++O%fkkkkkkkkkkkkkkkkkkkkkkkkkkkk3X+++++++++++++++++++lllllll",
"llllllll$++++++++++++++7pdgkkkkkkkkkkkkkkkkkkkkkkkk9X+++++++++++++++++++@lllllll",
"llllllll@++++++++++++++X+@=;15wkkkkkkkkkkkkkkkkkkg4OO++++++++++++++++++$llllllll",
"lllllllll$++++++++++++++++XXX.;kkkkj639gkkkkkjgp8=X++++++++++++++++++++@llllllll",
"lllllllll@#++++++++++++++++++X4kkkkg&.+fkkkkq-*+XX+++++++++++++++++++++lllllllll",
"llllllllll+++++++++++++++++++X5fjkkf%+&udhkk3.XO++++++++++++++++++@++#@lllllllll",
"lllllllllll$++++++++++++++++++@*-,33++++%=>3%+++++++++++++++++++++++++llllllllll",
"lllllllllll@$++++++++++++++++++XXXXX++++OOX.++++++++++++++++++++++++$lllllllllll",
"llllllllllll$++++++++++++++++++++++++++++++++++++++++++++++++++++++$@lllllllllll",
"lllllllllllll@+++++++O++++++++++++++++++++++++++++++++++++++++++++$@llllllllllll",
"llllllllllllll+++++++++++++++++++++++++++++++++++++++++++++++++++$@lllllllllllll",
"lllllllllllllll@+++++++++++++++++++++++++++++++++++++++++++++++@#@llllllllllllll",
"llllllllllllllll+#+++++++++++++++++++++++++++++++++++++++++++++$@lllllllllllllll",
"lllllllllllllllll@$+++++++++++++++++++++++++++++++++++++++++++$$llllllllllllllll",
"llllllllllllllllll@$++++++++++++++++++++++++++++++++++++++++#@@lllllllllllllllll",
"lllllllllllllllllll@$#+++++++++++++++++++++++++++++++++++++$@lllllllllllllllllll",
"lllllllllllllllllllll@$#+++++++++++++++++++++++++++++++++$+@llllllllllllllllllll",
"llllllllllllllllllllll@+$++++++++++++++++++++++++++++++@$@llllllllllllllllllllll",
"llllllllllllllllllllllll@@$$+++++++++++++++++++++++++$$@llllllllllllllllllllllll",
"llllllllllllllllllllllllll@@+$$#++++++++++++++++++$$+@llllllllllllllllllllllllll",
"lllllllllllllllllllllllllllll@@+$$$$$+++++++$$$$#@@lllllllllllllllllllllllllllll",
"lllllllllllllllllllllllllllllllll&$++@@+@+@++@@@llllllllllllllllllllllllllllllll",
"llllllllllllllllllllllllllllllllllllllllllllllllllllllllllllllllllllllllllllllll",
"llllllllllllllllllllllllllllllllllllllllllllllllllllllllllllllllllllllllllllllll",
"llllllllllllllllllllllllllllllllllllllllllllllllllllllllllllllllllllllllllllllll",
"llllllllllllllllllllllllllllllllllllllllllllllllllllllllllllllllllllllllllllllll"
};
