/* XPM */
static char *_508379343409[] = {
/* columns rows colors chars-per-pixel */
"48 48 46 1 ",
"  c #FF8E1D",
". c #FF9225",
"X c #FF962C",
"o c #FF982B",
"O c #FF9730",
"+ c #FF9A35",
"@ c #FE9C3A",
"# c #FFA137",
"$ c #FFA238",
"% c #FF9F40",
"& c #FFA245",
"* c #FFA64C",
"= c #FEA751",
"- c #FFAA54",
"; c #FEAD5C",
": c #FFB265",
"> c #FEB56C",
", c #FFB86F",
"< c #FEB771",
"1 c #FFB872",
"2 c #FEBE7D",
"3 c #FEBF81",
"4 c #FFC184",
"5 c #FEC58C",
"6 c #FDC690",
"7 c #FFC994",
"8 c #FFCD9C",
"9 c #FFCFA0",
"0 c #FFD1A4",
"q c #FFD5AC",
"w c #FED7B0",
"e c #FFDAB6",
"r c #FEDDBB",
"t c #FFE2C4",
"y c #FFE8C7",
"u c #FEE4CB",
"i c #FFE7D0",
"p c #FFEAD4",
"a c #FFEDDB",
"s c #FDEFE1",
"d c #FFF1E4",
"f c #FFF5EC",
"g c #FEF7F1",
"h c #FFF9F2",
"j c #FFFFFE",
"k c None",
/* pixels */
"kkkkkkkkkkkkkkkkkkkkkkkkkkkkkkkkkkkkkkkkkkkkkkkk",
"kkkkkkkkkkkkkkkkkkkkkkkkkkkkkkkkkkkkkkkkkkkkkkkk",
"kkkkkkkkkkkkkkkkkkkkkkkkkkkkkkkkkkkkkkkkkkkkkkkk",
"kkkkkkkkkkkkkkkkkk@+@+$$$$+++@kkkkkkkkkkkkkkkkkk",
"kkkkkkkkkkkkkkk@+$$$+++++++$$$$+@kkkkkkkkkkkkkkk",
"kkkkkkkkkkkkkk@$$+++++++++++++++$$+kkkkkkkkkkkkk",
"kkkkkkkkkkkk@$@+++++++++++++++++++$+@kkkkkkkkkkk",
"kkkkkkkkkkk+$+++++++++++++++++++++++$@kkkkkkkkkk",
"kkkkkkkkk@@++++++++++++++++++++++++++@@kkkkkkkkk",
"kkkkkkkk@$++++++++++++++++++++++++++++$@kkkkkkkk",
"kkkkkkkk$+++++++++++O+O++++++++++++++++++kkkkkkk",
"kkkkkkk+++++++++++++++XX++O+++++++++++++$@kkkkkk",
"kkkkkk+@++++++++XXX.&ttq*O+XX++++++++++++$kkkkkk",
"kkkkk@$++++++++O6uq67jjj-*it9%O+++++++XXooXkkkkk",
"kkkkk@+++++++++Oajjjjjjjapjjh*.++++++X&275:+kkkk",
"kkkkk$++++++++++,8ujjjjjjjjjja3+++++X3fjfhjukkkk",
"kkkk+@++++++++++X.6jjjtrpdjjjjjq++O.<jw%@%3ukkkk",
"kkkk+++++++++++++Xwjjj:.O&;9hjjj3X@<aj63635=Okkk",
"kkk@@++++++++++++Xtjjj;X+OXX4jjjuX:gjgssssu&+kkk",
"kkk+@++++++++++++@ajjf*++++X&fjja@%3ju:>>>&O$kkk",
"kkk@+++++++++++OO*djja@O+++O*fjjp+-fjhgjjs&X@@kk",
"kkk+++++++++++++O-hjju.XXO..7jjjeX=<uj8;;*X&@@kk",
"kkk@++++++++++++O:jjja4<;-:0jjjj>OO.=gf3;>r8o+kk",
"kkk+++++++++++++X2jjjjjjjhjjjjj8O+++O;tjjhs>++kk",
"kkk+++++++++++++X7jjjjjjjjjjjj7XO++++X+=;-+X$+kk",
"kkk$+++++++@++++Oqjjj5<50tgjjjt&O++++++XXXO++@kk",
"kkk@++++++++++++Xtjjj=.XXX*wjjjt@+++++++++++$+kk",
"kkk++++++++++++++ajjg*O+++XOtjjj:O++++++++++$@kk",
"kkk+++++++++++++&djja&O++++X3jjj6O++++++++++$kkk",
"kkk@$++++++++++O-hjjiO+++++X4jjj7O+++++++++++kkk",
"kkkk$+++++++++X.;jjje.XXOOXXrjjj3O+++++++++++kkk",
"kkkk@+++++++O@80ejjjt,;*&@=0jjjj-O+++++++++$@kkk",
"kkkk@$++++++O=jjjjjjjjjfaahjjjjeO+++++++++++kkkk",
"kkkkk++++++++@7riagjjjjjjjjjjji*O+++++++++@+kkkk",
"kkkkk@$+++++++.XO@8jjd8ijjjdi7%O++++++++++@kkkkk",
"kkkkkk+++++++++++X7jjt 4hjp@+.O++++++++++$@kkkkk",
"kkkkkk@$++++++++++&;<:O%-:;X++++++++++++$+kkkkkk",
"kkkkkkk+$+++++++++OX.X++XXX++++++++++++++kkkkkkk",
"kkkkkkkk@$++++++++++++++++++++++++++++@+kkkkkkkk",
"kkkkkkkkk+@+++++@+++++++++++++++++++++@@kkkkkkkk",
"kkkkkkkkkk@$++++++++++++++++++++++++$+kkkkkkkkkk",
"kkkkkkkkkkk@$$+++++++++++++++++++++$@kkkkkkkkkkk",
"kkkkkkkkkkkkk+$$+++++++++++++++++$$@kkkkkkkkkkkk",
"kkkkkkkkkkkkkk@+$$++++++++++++$$@+kkkkkkkkkkkkkk",
"kkkkkkkkkkkkkkkkk@+$$$$$$$$$$+@@kkkkkkkkkkkkkkkk",
"kkkkkkkkkkkkkkkkkkkkk+@++@+@kkkkkkkkkkkkkkkkkkkk",
"kkkkkkkkkkkkkkkkkkkkkkkkkkkkkkkkkkkkkkkkkkkkkkkk",
"kkkkkkkkkkkkkkkkkkkkkkkkkkkkkkkkkkkkkkkkkkkkkkkk"
};
